<?xml version="1.0" standalone="no"?>
<!DOCTYPE svg PUBLIC "-//W3C//DTD SVG 20010904//EN"
 "http://www.w3.org/TR/2001/REC-SVG-20010904/DTD/svg10.dtd">
<svg version="1.0" xmlns="http://www.w3.org/2000/svg"
 width="700.000000pt" height="700.000000pt" viewBox="0 0 700.000000 700.000000"
 preserveAspectRatio="xMidYMid meet">
<metadata>
Created by potrace 1.14, written by Peter Selinger 2001-2017
</metadata>
<g transform="translate(0.000000,700.000000) scale(0.100000,-0.100000)"
fill="#000000" stroke="none">
<path d="M2480 6076 c-1167 -394 -1422 -480 -1460 -492 -68 -21 -107 -49 -128
-91 -18 -37 -18 -115 -18 -2273 1 -2223 1 -2235 21 -2270 25 -44 93 -80 137
-73 17 2 94 29 172 60 179 70 469 181 706 272 102 39 194 75 205 80 17 8 165
65 460 179 l49 19 71 -24 c38 -14 160 -56 270 -95 110 -38 256 -89 325 -113
165 -57 484 -169 590 -206 47 -17 178 -63 291 -102 l206 -71 124 41 c500 168
1519 513 1539 521 38 15 68 53 77 97 5 22 9 1039 8 2260 0 2219 0 2220 -21
2255 -27 47 -85 79 -131 73 -31 -4 -292 -103 -753 -283 -69 -27 -287 -112
-485 -188 l-360 -140 -140 50 c-77 27 -234 83 -350 123 -115 40 -295 103 -400
140 -104 37 -208 73 -230 80 -22 7 -119 41 -215 75 -96 34 -193 68 -215 75
-22 7 -76 26 -120 42 l-80 28 -145 -49z m535 -671 c88 -31 241 -85 340 -120
99 -35 259 -91 355 -125 419 -147 577 -203 607 -211 18 -6 38 -16 45 -23 11
-10 13 -344 13 -1737 0 -1660 -1 -1724 -19 -1721 -15 3 -750 259 -936 327 -36
13 -202 71 -370 130 -168 58 -332 116 -365 129 l-60 22 -1 1724 c0 949 1 1728
3 1732 3 7 82 -19 388 -127z"/>
</g>
</svg>
